# xmcd CD database file
# Copyright (C) 1996 Ti Kan
#
# Track frame offsets:
#	150
#	16834
#	32913
#	49526
#	68987
#	84102
#	101725
#	116484
#	136156
#	152420
#	170337
#	189587
#	204841
#	220410
#	238284
#	252530
#	267816
#	290355
#	312559
# Disc length: 4438 seconds
#
# Revision: 1
# Processed by: cddbd v1.4b41PL1 Copyright (c) Steve Scherf et al.
# Submitted via: CDCOPY 4.735
#
DISCID=09115413
DTITLE=MODERN TALKING - The 8th Album: Alone
DYEAR=1900
DGENRE=
TTITLE0=You Are Not Alone
TTITLE1=Sexy Sexy Lover
TTITLE2=I Can't Give You More
TTITLE3=Just Close Your Eyes
TTITLE4=Don't Let Me Go
TTITLE5=I'm So Much In Love
TTITLE6=Rouge Et Noir
TTITLE7=All I Have
TTITLE8=Can't Get Enough
TTITLE9=Love Is Like A Rainbow
TTITLE10=How You Mend A Borken Heart
TTITLE11=It Hurts So Good
TTITLE12=I'll Never Give You Up
TTITLE13=Don't Let Me Down
TTITLE14=Taxi Girl
TTITLE15=For Always And Ever
TTITLE16=Sexy Sexy Lover (extended rap version)
TTITLE17=You Are Not Alone (extended rap version)
TTITLE18=Space Mix
EXTD=
EXTT0=
EXTT1=
EXTT2=
EXTT3=
EXTT4=
EXTT5=
EXTT6=
EXTT7=
EXTT8=
EXTT9=
EXTT10=
EXTT11=
EXTT12=
EXTT13=
EXTT14=
EXTT15=
EXTT16=
EXTT17=
EXTT18=
PLAYORDER=
